<?xml version="1.0" encoding="UTF-8"?>
<svg id="Camada_1" xmlns="http://www.w3.org/2000/svg" version="1.1" viewBox="0 0 72 72">
  <!-- Generator: Adobe Illustrator 29.8.1, SVG Export Plug-In . SVG Version: 2.1.1 Build 2)  -->
  <defs>
    <style>
      .st0 {
        fill: #ff7b00;
        fill-rule: evenodd;
      }
    </style>
  </defs>
  <g id="Page-1">
    <g id="Icon-Set-Filled">
      <path id="arrow-right-circle" class="st0" d="M32.8,46.1h0s0,0,0,0c0,0,0,0,0,0h0s0,0,0,0c0,0,0,0,0,0s0,0,0,0h0,0s0,0,0,0c0,0,0,0,0,0h0s0,0,0,0c0,0,0,0,0,0h0ZM32.8,46.1s0,0,0,0,0,0,0,0,0,0,0,0,0,0,0,0h0Z"/>
    </g>
  </g>
  <g id="Page-11" data-name="Page-1">
    <g id="Icon-Set-Filled1" data-name="Icon-Set-Filled">
      <path id="arrow-right-circle1" data-name="arrow-right-circle" class="st0" d="M49.8,37.9l-11.9,11.9c-.8.8-2.2.8-3,0-.8-.8-.8-2.2,0-3l8.7-8.7h-22.3c-1.2,0-2.1-.9-2.1-2.1s.9-2.1,2.1-2.1h22.3l-8.7-8.7c-.8-.8-.8-2.1,0-3,.8-.8,2.2-.8,3,0l11.9,11.9c.5.5.7,1.2.5,1.9.1.7,0,1.3-.5,1.9h0ZM36,2.3C17.4,2.3,2.3,17.4,2.3,36s15.1,33.7,33.7,33.7,33.7-15.1,33.7-33.7S54.6,2.3,36,2.3h0Z"/>
    </g>
  </g>
</svg>