<?xml version="1.0" encoding="UTF-8"?>
<svg id="Camada_1" xmlns="http://www.w3.org/2000/svg" version="1.1" viewBox="0 0 72 72">
  <!-- Generator: Adobe Illustrator 29.8.1, SVG Export Plug-In . SVG Version: 2.1.1 Build 2)  -->
  <defs>
    <style>
      .st0 {
        fill: #ff7b00;
      }
    </style>
  </defs>
  <path class="st0" d="M57.7.7H14.3C6.8.7.7,6.8.7,14.3v43.3c0,7.5,6.1,13.7,13.7,13.7h43.3c7.5,0,13.7-6.1,13.7-13.7V14.3c0-7.5-6.2-13.6-13.7-13.6ZM61.6,8.8h1.6v12h-11.9s0-11.9,0-11.9h10.4ZM25.9,28.7c2.3-3.1,5.9-5.2,10.1-5.2s7.8,2,10.1,5.2c1.5,2,2.3,4.6,2.3,7.3,0,6.8-5.6,12.4-12.4,12.4s-12.4-5.6-12.4-12.4.9-5.2,2.3-7.3ZM64.4,57.6c0,3.7-3,6.8-6.8,6.8H14.3c-3.7,0-6.8-3-6.8-6.8v-28.9h10.5c-.9,2.2-1.4,4.7-1.4,7.3,0,10.6,8.7,19.3,19.3,19.3s19.3-8.7,19.3-19.3-.5-5-1.4-7.3h10.5v28.9Z"/>
</svg>