<?xml version="1.0" encoding="UTF-8"?>
<svg id="Camada_1" xmlns="http://www.w3.org/2000/svg" version="1.1" viewBox="0 0 72 72">
  <!-- Generator: Adobe Illustrator 29.8.1, SVG Export Plug-In . SVG Version: 2.1.1 Build 2)  -->
  <defs>
    <style>
      .st0 {
        fill: #fff;
      }

      .st1 {
        fill: #ff7b00;
        fill-rule: evenodd;
      }
    </style>
  </defs>
  <g id="Page-1">
    <g id="Icon-Set-Filled">
      <path id="arrow-right-circle" class="st1" d="M32.8,46.1h0s0,0,0,0c0,0,0,0,0,0h0s0,0,0,0c0,0,0,0,0,0s0,0,0,0h0,0s0,0,0,0c0,0,0,0,0,0h0s0,0,0,0c0,0,0,0,0,0h0ZM32.8,46.1s0,0,0,0,0,0,0,0,0,0,0,0,0,0,0,0h0Z"/>
    </g>
  </g>
  <g>
    <path class="st0" d="M51.2,42.7c-.9-.4-5-2.4-5.7-2.8s-1.3-.4-1.9.5-2.2,2.7-2.7,3.3-.9.6-1.8,0c-2.5-1-4.7-2.4-6.7-4.1-1.8-1.7-3.3-3.7-4.5-5.8-.5-.8,0-1.3.4-1.7s.8-.9,1.3-1.4c.3-.4.6-.9.8-1.4.2-.5.2-1,0-1.5,0-.4-1.9-4.5-2.6-6.2s-1.4-1.4-1.8-1.4h-1.8c-.9,0-1.7.4-2.3,1-1.9,1.8-3,4.4-2.9,7,.2,3.2,1.4,6.3,3.4,8.8,3.6,5.4,8.6,9.7,14.4,12.6,2,.9,3.5,1.4,4.7,1.8,1.7.5,3.5.6,5.3.3,2.4-.5,4.4-1.9,5.7-4,.5-1.3.7-2.6.5-4-.2-.3-.8-.5-1.6-.9Z"/>
    <path class="st0" d="M59.7,12c-6.3-6.4-14.9-9.9-23.8-9.8C17.3,2.3,2.4,17.4,2.5,35.9c0,5.8,1.6,11.5,4.5,16.6l-4.5,17.4,17.8-4.5c4.9,2.7,10.4,4.1,16,4.1h-.4c18.5.1,33.6-14.8,33.8-33.3,0-9-3.5-17.7-9.9-24h0ZM35.8,63.6c-5,0-9.9-1.4-14.2-3.9l-1-.6-10.5,2.8,2.8-10.3-.6-1c-8.1-13.1-4.1-30.2,9-38.4,11-6.8,25.1-5.2,34.3,3.9,5.3,5.2,8.2,12.3,8.2,19.7,0,15.4-12.5,27.8-27.9,27.9Z"/>
  </g>
</svg>